<?xml version="1.0" standalone="no"?>
<!DOCTYPE svg PUBLIC "-//W3C//DTD SVG 20010904//EN"
 "http://www.w3.org/TR/2001/REC-SVG-20010904/DTD/svg10.dtd">
<svg version="1.0" xmlns="http://www.w3.org/2000/svg"
 width="700.000000pt" height="700.000000pt" viewBox="0 0 700.000000 700.000000"
 preserveAspectRatio="xMidYMid meet">
<metadata>
Created by potrace 1.14, written by Peter Selinger 2001-2017
</metadata>
<g transform="translate(0.000000,700.000000) scale(0.100000,-0.100000)"
fill="#000000" stroke="none">
<path d="M4270 5545 c-61 -13 -95 -27 -187 -79 -86 -48 -195 -87 -313 -111 -8
-1 -37 -6 -65 -9 -94 -13 -120 -17 -160 -28 -41 -10 -95 -52 -95 -74 0 -42
-107 -116 -219 -153 -35 -12 -105 -43 -155 -70 -104 -56 -175 -79 -226 -75
-134 12 -188 10 -294 -12 -61 -13 -138 -27 -171 -30 -197 -21 -412 -165 -532
-359 -17 -27 -50 -88 -73 -135 -59 -122 -117 -191 -245 -295 -85 -69 -118 -98
-186 -163 -149 -141 -288 -239 -396 -278 -57 -20 -161 -94 -237 -168 -210
-203 -421 -557 -471 -791 -21 -99 -16 -288 11 -420 3 -11 7 -38 10 -60 12 -90
57 -244 90 -311 89 -181 250 -312 478 -388 92 -31 252 -63 351 -70 39 -3 113
-9 165 -13 128 -9 315 -9 370 0 25 4 79 12 120 18 41 5 113 16 160 24 47 8 99
16 115 18 92 15 327 61 393 78 42 11 149 52 237 91 88 38 194 83 235 100 41
16 89 35 105 43 17 7 55 23 85 35 30 11 69 27 85 35 17 7 68 30 115 50 789
344 1386 673 1990 1095 194 136 301 205 625 405 481 297 608 394 710 546 16
24 39 56 51 71 17 21 22 40 22 95 0 38 10 106 23 153 27 103 32 286 9 365 -32
112 -311 435 -457 529 -112 72 -244 123 -368 141 -22 4 -51 8 -65 11 -14 2
-112 5 -217 5 -136 1 -209 5 -245 15 -88 24 -91 25 -148 28 -30 2 -89 -5 -130
-15 -41 -10 -119 -21 -172 -24 -114 -5 -142 3 -329 93 -185 90 -284 111 -399
87z m75 -95 c-3 -5 -27 -10 -53 -10 -34 0 -43 3 -32 10 20 13 93 13 85 0z
m208 -101 c39 -20 177 -117 177 -124 0 -7 -93 -45 -123 -50 -16 -3 -37 -3 -47
0 -16 5 -16 10 -6 36 10 30 9 33 -33 69 -37 32 -43 42 -37 64 8 32 15 32 69 5z
m-668 -65 c-16 -12 -48 -28 -72 -35 -56 -15 -78 -46 -68 -95 l6 -36 62 7 c34
3 82 8 107 11 67 7 131 31 167 63 18 16 50 31 71 35 22 3 59 14 83 25 51 22
127 33 135 19 4 -6 -2 -19 -12 -29 -26 -26 -227 -113 -321 -140 -91 -25 -176
-66 -168 -79 8 -13 45 -13 83 1 54 19 62 11 44 -44 -18 -56 -12 -64 43 -68 58
-4 75 -15 75 -49 0 -23 -4 -30 -20 -30 -11 0 -22 1 -23 3 -11 7 -34 -27 -30
-43 9 -36 39 -53 83 -47 47 6 53 0 54 -62 l1 -46 43 -1 c24 0 67 5 94 12 28 8
55 11 59 8 5 -3 16 -21 24 -40 18 -43 33 -43 120 -3 37 18 101 39 143 48 70
15 77 18 86 46 13 40 10 37 51 40 42 2 53 11 37 27 -47 47 32 98 161 104 45 2
98 6 117 8 44 5 90 -14 158 -65 83 -63 147 -132 198 -211 40 -63 159 -190 273
-293 l33 -30 -7 35 c-4 19 -22 69 -40 110 -33 74 -105 286 -105 308 0 14 106
46 220 66 47 9 99 18 115 22 52 10 211 12 261 3 27 -5 73 -11 104 -14 147 -14
154 -17 178 -107 9 -34 9 -37 -6 -29 -46 24 -175 81 -230 101 -54 20 -74 22
-150 17 -163 -11 -218 -27 -337 -98 -47 -27 -85 -51 -85 -53 0 -2 12 -2 27 0
130 14 187 18 241 17 53 -2 69 -7 108 -35 l46 -33 136 -1 c111 -1 150 -6 206
-24 61 -19 67 -23 50 -33 -10 -6 -63 -11 -116 -11 -53 -1 -99 -4 -103 -8 -7
-7 86 -38 114 -38 26 0 79 -44 85 -70 2 -15 -6 -48 -22 -83 -21 -48 -23 -62
-14 -78 19 -30 14 -51 -23 -103 -19 -27 -35 -53 -35 -57 0 -4 17 1 37 11 77
37 110 -17 36 -58 -50 -27 -52 -35 -18 -50 33 -15 32 -34 -5 -89 -16 -24 -30
-53 -30 -64 0 -42 -225 -216 -380 -294 -41 -21 -100 -54 -130 -74 -103 -68
-143 -79 -104 -28 32 42 97 120 141 171 24 26 43 54 43 62 0 8 18 25 40 39 21
13 44 33 49 43 11 21 128 85 135 74 3 -5 -11 -28 -30 -51 -34 -43 -41 -61 -26
-61 17 0 83 39 144 85 34 26 73 52 86 58 22 10 30 41 13 52 -6 3 -29 1 -53 -4
-24 -6 -63 -12 -88 -14 -62 -5 -116 -33 -141 -73 -11 -19 -31 -37 -44 -40 -13
-3 -29 -12 -36 -20 -6 -8 -18 -14 -26 -14 -7 0 -59 -36 -115 -81 -112 -89
-157 -115 -206 -117 -24 -2 -80 -33 -190 -105 -86 -57 -199 -130 -251 -162
l-93 -59 -40 23 c-41 23 -84 22 -111 -2 -6 -7 -43 -38 -82 -69 -38 -31 -84
-69 -101 -85 -17 -15 -68 -61 -112 -101 -45 -41 -98 -86 -119 -101 -21 -15
-78 -65 -128 -110 -100 -92 -151 -123 -275 -171 -47 -19 -119 -57 -160 -85
-42 -29 -96 -62 -120 -75 -44 -22 -43 -20 36 57 44 44 83 89 87 101 5 21 3 22
-31 16 -58 -10 -112 -39 -176 -96 -105 -95 -208 -166 -327 -228 -123 -63 -142
-68 -173 -45 -11 8 -22 12 -25 7 -3 -4 -23 -21 -43 -39 -43 -37 -85 -50 -183
-58 -39 -4 -76 -8 -82 -10 -27 -9 -43 6 -38 36 3 16 4 29 1 29 -2 0 -29 -11
-60 -25 -32 -14 -105 -39 -164 -57 -140 -41 -181 -59 -275 -120 -74 -48 -80
-51 -113 -40 -39 12 -42 10 -96 -60 -45 -60 -102 -80 -247 -89 -95 -6 -144
-14 -200 -33 -113 -39 -127 -33 -67 29 19 19 33 35 31 35 -2 0 -43 -11 -92
-23 -91 -25 -223 -36 -223 -19 0 17 203 92 290 106 19 3 50 10 68 15 17 5 32
8 32 6 0 -3 11 0 25 5 20 8 23 7 18 -8 -3 -9 -10 -23 -16 -29 -7 -10 2 -13 41
-13 35 0 69 9 114 30 34 16 70 30 78 30 8 0 21 13 28 29 14 32 56 55 117 65
l40 6 -27 -22 c-16 -12 -52 -32 -80 -45 -29 -12 -47 -22 -39 -23 22 0 232 107
261 133 14 12 47 48 74 80 46 54 51 57 80 51 37 -9 51 -9 134 1 34 4 62 11 62
16 0 4 -14 19 -31 33 -36 31 -75 33 -109 6 -25 -19 -90 -28 -90 -12 0 5 13 18
30 30 35 26 37 37 11 52 -17 8 -42 -5 -158 -82 -181 -120 -225 -142 -368 -182
-66 -19 -140 -41 -165 -51 -82 -30 -184 -56 -245 -62 -33 -3 -68 -9 -77 -14
-26 -14 -38 -11 -38 9 0 22 50 72 75 76 10 1 30 13 44 25 45 38 313 211 383
247 37 19 78 34 91 34 40 0 69 28 65 63 -3 31 -2 32 49 39 28 4 86 19 128 33
41 14 79 24 83 21 5 -3 14 -1 21 4 28 17 -24 27 -129 26 -99 -2 -109 -4 -170
-36 -70 -37 -198 -120 -222 -144 -66 -65 -203 -151 -283 -176 -22 -7 -44 -17
-50 -23 -7 -7 -4 -8 7 -4 10 4 28 3 40 -2 l21 -8 -21 -21 c-12 -12 -30 -22
-40 -22 -9 0 -37 -16 -62 -36 -57 -46 -187 -108 -266 -128 -106 -27 -215 -18
-265 23 l-23 18 38 18 c33 16 36 20 20 26 -11 4 -25 14 -32 22 -14 16 -32 5
332 219 83 48 142 88 132 88 -33 0 -229 -70 -285 -101 -47 -27 -59 -30 -102
-24 -88 12 -134 -45 -48 -59 21 -3 39 -10 39 -14 0 -8 -95 -70 -147 -96 -18
-9 -53 -19 -77 -22 -31 -5 -51 -14 -63 -30 -10 -13 -23 -24 -30 -24 -22 0 -59
21 -71 41 -10 16 -9 25 11 53 26 40 47 35 67 -14 16 -38 30 -39 30 -1 0 32 18
51 49 54 30 2 26 23 -8 43 -34 20 -45 48 -25 65 8 6 19 32 26 56 7 28 21 52
38 65 21 15 29 31 33 68 7 60 39 111 125 203 165 176 205 204 322 222 86 13
89 15 37 41 -37 19 -47 30 -47 49 0 20 5 25 28 25 27 1 27 1 -16 39 l-43 37
20 25 c11 14 39 31 63 38 74 22 92 34 99 69 8 41 -2 41 -83 -1 -35 -19 -76
-37 -91 -41 -25 -6 -27 -5 -18 11 15 27 119 133 175 178 40 33 56 39 94 40 42
0 46 2 53 29 10 38 25 46 61 34 32 -11 40 -7 45 21 2 13 -10 24 -39 37 -51 23
-61 21 -112 -20 -48 -39 -88 -54 -136 -51 -51 2 -110 -21 -150 -59 -19 -18
-43 -36 -53 -40 -23 -7 -119 43 -115 61 5 19 159 142 227 180 79 45 132 63
196 70 28 2 56 6 63 8 6 3 12 1 12 -4 0 -13 -32 -44 -85 -83 -87 -63 -134
-128 -54 -76 73 48 120 69 171 75 66 7 88 18 88 43 0 19 -63 70 -87 70 -6 0
-15 5 -19 12 -4 6 -3 8 3 5 5 -3 25 -9 44 -12 19 -3 84 -17 144 -31 61 -14
118 -27 128 -29 9 -2 61 -16 114 -31 81 -23 99 -32 112 -56 17 -30 22 -32 93
-29 64 3 147 -22 237 -71 135 -73 268 -108 396 -104 184 5 234 86 155 255 -50
105 -114 185 -213 265 -51 40 -108 89 -127 108 -19 18 -67 60 -105 92 -88 74
-93 83 -60 98 31 14 32 23 0 44 -14 9 -25 22 -25 28 0 15 75 87 160 153 80 62
220 143 298 172 60 23 142 26 149 6 1 -5 -32 -32 -75 -59 -42 -27 -72 -51 -65
-53 6 -2 50 16 98 41 57 31 98 46 123 46 36 0 36 0 -38 -43 -41 -23 -129 -84
-196 -134 -142 -107 -227 -163 -249 -163 -8 0 -15 2 -15 5 0 11 24 55 30 55
12 0 104 89 98 96 -15 14 -113 -54 -201 -139 -27 -25 -28 -29 -15 -50 8 -12
32 -30 52 -40 20 -10 39 -24 42 -32 4 -8 11 -15 16 -15 9 0 362 216 468 286
54 36 142 73 194 83 26 5 52 13 57 18 16 16 -2 43 -28 43 -33 0 -59 15 -116
66 -64 57 -125 71 -207 48 -53 -15 -136 -21 -147 -10 -13 13 47 53 106 71 54
16 84 28 143 61 55 30 143 -17 358 -191 69 -56 177 -141 240 -189 179 -136
385 -308 406 -338 11 -16 27 -28 37 -28 22 0 24 19 13 139 -4 41 -9 78 -11 81
-2 4 -7 22 -10 41 -17 102 -86 266 -159 378 -48 74 -218 285 -304 376 -31 33
-88 86 -127 119 -80 67 -104 94 -105 118 0 25 49 55 105 62 57 8 99 14 135 21
14 3 41 7 60 10 19 3 37 8 39 11 3 3 7 0 10 -7 2 -7 -9 -23 -24 -35z m973 8
c39 -11 100 -19 135 -18 74 1 77 -6 12 -24 -77 -22 -162 1 -240 65 -20 16 -20
16 1 6 12 -6 53 -19 92 -29z m-701 -18 c5 -14 -56 -54 -81 -54 -9 0 -33 -9
-53 -20 -47 -25 -101 -36 -114 -23 -7 7 14 24 62 52 92 53 177 73 186 45z
m1433 -42 c69 3 75 1 75 -17 1 -40 -24 -108 -50 -135 l-26 -27 61 13 c33 7 86
15 118 19 31 3 85 11 120 17 84 14 232 0 232 -22 0 -16 -81 -27 -265 -35 -79
-3 -144 -12 -190 -26 -113 -33 -102 -40 -172 100 -35 68 -63 128 -63 132 0 5
19 1 43 -7 27 -10 68 -14 117 -12z m443 -37 c20 -8 37 -19 37 -23 0 -4 -23 -8
-51 -10 -28 -1 -79 -6 -113 -12 -33 -5 -83 -12 -111 -15 -27 -4 -60 -8 -72
-10 -18 -3 -23 1 -23 19 0 35 31 56 106 69 76 15 167 7 227 -18z m194 -37
c-17 -9 -57 5 -57 21 0 18 14 19 43 4 26 -13 28 -17 14 -25z m-1429 -4 c49
-10 47 -20 -10 -47 -100 -47 -174 -41 -166 14 2 19 12 26 48 36 45 11 64 11
128 -3z m332 -42 c19 -21 47 -55 63 -75 15 -21 41 -40 58 -44 l30 -8 -25 -24
c-25 -23 -26 -23 -53 -6 -15 10 -53 42 -83 70 -30 29 -73 68 -94 86 l-39 34
34 6 c54 9 72 2 109 -39z m-735 2 c-35 -29 -120 -64 -168 -70 -26 -4 -47 -4
-47 -1 0 8 106 68 138 77 15 5 43 9 62 9 34 0 34 0 15 -15z m158 -61 c14 -32
-4 -50 -71 -67 -47 -13 -54 -12 -98 8 -43 20 -45 23 -29 36 26 22 136 57 163
52 13 -3 29 -15 35 -29z m444 -20 c38 -39 68 -82 62 -87 -2 -1 -65 -19 -141
-39 -134 -37 -498 -148 -549 -168 -15 -6 -35 -26 -45 -45 -15 -27 -25 -34 -49
-34 -52 0 -58 12 -29 56 30 47 73 78 141 104 27 10 78 32 114 48 103 47 125
52 244 59 50 3 92 7 94 9 2 1 -7 19 -19 39 -25 41 -23 45 35 74 63 32 102 27
142 -16z m1345 -5 c19 -15 32 -78 17 -78 -16 0 -69 57 -69 74 0 19 30 21 52 4z
m-110 -27 c15 -8 29 -19 32 -26 3 -9 -42 -12 -197 -10 -118 1 -231 -3 -272
-10 l-70 -12 100 -3 c55 -1 118 -4 139 -6 85 -7 128 -13 133 -17 2 -3 -17 -12
-44 -21 -47 -15 -78 -20 -178 -31 -101 -10 -190 -40 -231 -76 l-21 -19 -13 70
c-10 54 -11 76 -2 96 15 32 88 65 161 71 31 3 58 7 60 9 2 2 88 2 190 1 132
-2 194 -7 213 -16z m-2951 -19 c-5 -10 -21 -28 -35 -41 -42 -39 -34 -52 27
-45 71 8 129 -9 207 -61 77 -51 323 -294 376 -371 40 -58 57 -66 74 -34 18 33
42 25 38 -12 -3 -29 0 -33 22 -36 39 -6 50 -21 50 -66 0 -35 6 -49 40 -84 22
-22 40 -46 40 -52 0 -16 -46 -12 -61 7 -17 20 -147 123 -344 273 -156 118
-275 214 -358 287 -30 26 -62 45 -85 49 -51 9 -228 93 -216 102 57 48 133 92
179 102 41 9 57 2 46 -18z m3183 -5 c18 -17 33 -49 30 -64 -1 -7 -2 -20 -3
-28 -4 -47 -51 22 -51 75 0 33 5 37 24 17z m-2182 -77 c-49 -47 -103 -55 -122
-20 -10 18 -7 22 22 34 57 23 62 24 103 25 l40 1 -43 -40z m12 -67 c-25 -20
-121 -49 -130 -40 -2 2 22 21 54 43 49 35 60 39 81 30 l23 -10 -28 -23z
m-1589 11 c-37 -30 -124 -66 -144 -59 -29 9 -34 34 -8 44 60 23 86 29 127 30
43 0 44 0 25 -15z m384 -34 c21 -10 41 -26 45 -35 9 -23 -31 -58 -57 -50 -12
3 -54 9 -93 12 -66 5 -78 3 -150 -29 -113 -48 -232 -116 -363 -207 -163 -113
-155 -103 -147 -166 5 -43 2 -57 -12 -75 -17 -21 -21 -22 -58 -10 -21 7 -44
17 -50 21 -6 5 -43 20 -83 34 -65 22 -101 29 -190 40 -18 2 -35 6 -37 8 -9 9
35 96 53 105 10 5 27 6 38 2 14 -5 29 3 60 34 39 41 151 120 210 149 17 8 46
17 66 21 35 6 34 4 -70 -102 -58 -59 -119 -117 -136 -129 -16 -12 -28 -24 -25
-27 3 -2 28 -8 55 -11 28 -4 56 -12 63 -17 11 -10 13 -6 12 27 -1 12 29 61 47
77 10 9 77 50 148 91 72 41 179 103 239 138 94 55 115 63 160 64 40 0 56 5 74
23 15 15 30 21 40 17 39 -15 68 -15 87 -1 26 20 29 20 74 -4z m3184 -94 c66
-17 142 -49 151 -64 6 -10 -2 -10 -124 2 -19 2 -83 4 -141 5 -104 1 -107 2
-113 25 -3 14 -16 28 -29 33 -19 6 -17 8 18 13 61 9 176 2 238 -14z m-4189
-77 c-118 -125 -115 -122 -103 -93 14 38 26 51 79 90 56 42 62 42 24 3z m691
-43 c-17 -26 -71 -51 -80 -37 -6 11 13 27 56 45 19 9 35 15 37 16 1 0 -5 -11
-13 -24z m101 -21 c-11 -8 -34 -15 -50 -15 l-31 1 25 14 c14 8 36 14 50 14 24
0 24 0 6 -14z m-196 -22 c0 -5 -16 -26 -35 -47 -31 -35 -43 -56 -31 -56 2 0
22 7 44 14 64 23 61 2 -7 -65 -59 -58 -156 -180 -180 -226 -15 -28 -31 -29
-65 -2 -36 28 -33 60 9 106 19 21 35 42 35 47 0 4 -11 17 -25 28 -35 27 -31
44 18 75 23 14 65 44 94 66 42 31 85 51 141 66 1 1 2 -2 2 -6z m111 -22 c-13
-23 -31 -37 -58 -45 -38 -12 -28 21 15 48 40 26 57 25 43 -3z m1277 -44 c7
-15 10 -32 7 -38 -11 -16 -45 21 -45 48 0 31 21 26 38 -10z m2500 -138 c-14
-41 -18 -36 -18 19 1 42 2 45 15 29 10 -14 11 -26 3 -48z m-3390 2 c-11 -18
-47 -35 -56 -26 -7 7 38 45 53 45 12 0 13 -3 3 -19z m-1430 -220 c8 -24 19
-32 54 -41 182 -46 362 -127 673 -303 83 -47 176 -100 208 -118 32 -19 80 -55
105 -81 44 -45 126 -167 118 -175 -2 -2 -23 1 -47 6 -24 5 -60 13 -79 16 -143
25 -248 50 -386 90 -283 84 -329 97 -504 140 -230 57 -404 83 -535 79 -46 -2
-87 0 -89 4 -9 15 36 70 70 87 47 22 61 24 192 29 77 3 127 1 157 -9 43 -12
44 -12 35 6 -14 25 -37 36 -91 44 -61 8 -60 8 -101 0 -30 -6 -38 -4 -47 13
-17 32 -3 50 47 64 40 12 49 20 71 63 25 48 98 115 126 115 7 0 18 -13 23 -29z
m4823 -175 c-37 -53 -51 -64 -43 -34 7 28 22 56 47 90 35 46 31 -5 -4 -56z
m-4965 -279 c4 -4 -1 -7 -12 -8 -28 -1 -73 -8 -124 -19 -25 -5 -88 -9 -140 -7
l-95 2 -100 -53 c-167 -90 -274 -180 -362 -308 -212 -307 -300 -462 -303 -534
-3 -62 -1 -72 14 -67 30 12 21 -19 -16 -54 -32 -30 -38 -42 -38 -77 0 -53 -8
-72 -31 -72 -19 0 -21 7 -22 85 0 24 11 120 18 158 13 69 100 275 150 357 12
19 37 62 55 95 44 81 90 141 118 154 12 6 46 36 75 67 132 143 163 169 269
219 114 54 216 73 390 71 81 -1 150 -5 154 -9z m4172 -261 c11 -11 -87 -79
-301 -209 l-158 -97 32 45 c60 83 240 237 307 261 35 13 106 13 120 0z m-4779
-73 c-14 -16 -55 -71 -91 -123 -37 -52 -90 -121 -119 -154 -48 -54 -54 -57
-66 -40 -23 31 -14 61 38 131 61 82 104 123 183 174 69 46 90 50 55 12z m151
-118 c0 -19 -270 -274 -291 -275 -11 0 10 88 30 128 37 72 135 159 195 172 35
8 66 -4 66 -25z m4123 -39 c-10 -14 -24 -26 -31 -26 -6 0 -35 -22 -63 -49 -41
-40 -52 -57 -56 -92 -4 -24 -11 -49 -18 -55 -23 -24 -831 -514 -857 -522 -33
-8 -18 19 38 71 98 90 203 159 444 294 95 53 106 62 120 100 12 33 29 51 75
83 121 84 170 113 232 142 35 15 63 33 63 38 0 11 61 52 68 45 2 -2 -4 -15
-15 -29z m-4134 -136 c-165 -221 -234 -290 -362 -365 -40 -23 -51 -26 -58 -14
-12 20 -13 20 31 69 89 99 123 131 157 148 20 9 40 24 44 32 4 8 18 37 31 64
15 33 41 64 78 92 52 42 161 106 168 99 2 -1 -38 -58 -89 -125z m-439 -84 c0
-19 -16 -49 -55 -102 -14 -19 -13 -23 10 -48 28 -31 26 -39 -28 -131 -20 -32
-46 -83 -58 -111 -22 -56 -44 -73 -66 -51 -21 21 -5 71 50 155 52 81 52 79 31
190 -5 28 0 43 37 98 44 64 44 65 62 43 9 -12 17 -31 17 -43z m638 25 c6 0 12
-5 12 -11 0 -8 -152 -133 -274 -225 l-39 -29 23 44 c22 43 104 152 134 177 36
30 81 51 105 48 14 -1 32 -3 39 -4z m-544 -114 c-3 -9 -15 -17 -26 -17 -19 0
-18 8 5 38 13 17 30 0 21 -21z m-241 -110 c-7 -33 -25 -67 -35 -67 -10 0 -1
54 14 83 12 24 27 13 21 -16z m152 -326 c-27 -81 -42 -111 -55 -111 -11 0 -4
58 12 99 8 21 55 81 64 81 2 0 -8 -31 -21 -69z m3355 -57 l0 -35 -157 -76
c-87 -41 -217 -103 -289 -138 -224 -109 -384 -168 -439 -164 -17 2 -42 -5 -55
-14 -13 -9 -30 -17 -36 -17 -6 0 -44 -14 -85 -30 -193 -80 -351 -117 -384 -90
-22 18 -18 53 8 77 43 41 289 153 334 153 20 0 16 -38 -7 -67 -11 -14 -20 -30
-20 -35 0 -21 135 35 176 73 30 28 58 25 52 -5 -6 -30 -6 -30 178 63 77 38
171 79 209 91 146 44 172 54 230 84 54 28 182 111 244 158 30 23 41 15 41 -28z
m-3460 -32 c10 -95 5 -166 -14 -194 -20 -31 -55 -46 -66 -29 -7 13 -5 65 5
121 7 39 54 150 64 150 3 0 8 -21 11 -48z m-175 -99 c-4 -95 -19 -141 -40
-123 -12 10 -37 69 -40 95 -3 23 56 105 76 105 3 0 5 -35 4 -77z m2399 -205
c-11 -17 -68 -40 -101 -40 -44 0 -51 7 -21 23 40 22 133 35 122 17z m-2251
-73 c-7 -31 -27 -42 -48 -25 -24 20 -18 56 12 80 l28 21 6 -24 c4 -14 4 -37 2
-52z m1431 -12 c-17 -13 -44 -2 -44 17 0 13 34 17 48 6 11 -8 11 -12 -4 -23z
m561 -28 c-36 -23 -85 -40 -138 -51 -10 -2 -28 -6 -40 -10 -38 -11 -7 12 66
50 47 25 81 36 110 36 l42 -1 -40 -24z m-1651 -35 c9 -22 16 -44 16 -49 0 -18
-41 -18 -79 1 -62 30 -67 42 -29 67 51 32 73 28 92 -19z m1569 -79 c-10 -38
-59 -73 -138 -101 -44 -15 -105 -38 -135 -52 -57 -26 -101 -42 -210 -77 -93
-29 -114 -31 -145 -15 -36 19 -42 18 -132 -12 -103 -35 -158 -35 -216 -1 -25
15 -61 27 -80 27 -24 0 -43 9 -65 30 -39 37 -46 37 -93 4 -89 -62 -269 -13
-244 67 7 20 11 21 77 15 38 -3 113 -9 166 -12 69 -4 104 -11 122 -24 19 -13
31 -15 50 -8 14 6 99 12 190 15 294 10 263 13 282 -26 l17 -34 31 33 c28 30
33 32 55 20 22 -12 32 -10 92 18 38 17 88 38 113 48 25 9 65 32 90 49 43 31
93 48 152 53 21 2 25 -1 21 -17z m-944 -46 c19 -3 37 -7 39 -10 10 -9 -77 -36
-120 -37 -50 0 -148 28 -148 42 0 16 136 19 229 5z m-699 -45 c0 -19 -22 -21
-41 -4 -14 13 -16 20 -7 25 13 8 48 -7 48 -21z m1768 -12 c-5 -15 -58 -24 -58
-10 0 15 12 22 38 22 14 0 22 -5 20 -12z m-68 -28 c0 -5 -8 -14 -19 -19 -18
-10 -91 -22 -91 -14 0 2 15 12 33 23 34 21 77 27 77 10z m-1141 -150 c11 0 11
-3 1 -15 -15 -18 -39 -19 -77 -4 l-28 12 25 8 c14 4 34 6 45 3 11 -2 26 -4 34
-4z"/>
<path d="M2923 4379 c-38 -19 -60 -45 -49 -57 10 -9 55 9 85 34 55 46 35 58
-36 23z"/>
<path d="M3318 4306 c-70 -25 -146 -67 -213 -120 -44 -34 -86 -79 -79 -85 2
-2 65 37 141 86 127 82 168 106 234 132 53 21 -17 10 -83 -13z"/>
<path d="M1454 3006 c-29 -13 -54 -36 -39 -36 17 0 75 30 75 39 0 13 2 13 -36
-3z"/>
<path d="M1749 2858 c-13 -47 7 -72 49 -62 23 6 23 41 0 56 -12 7 -47 11 -49
6z"/>
<path d="M1681 2702 c-37 -19 -52 -36 -24 -28 26 8 47 12 109 22 42 6 45 8 25
16 -30 11 -78 7 -110 -10z"/>
<path d="M2060 2590 c-41 -7 -71 -22 -90 -44 -15 -20 -18 -20 58 4 69 22 121
50 86 47 -10 -1 -35 -4 -54 -7z"/>
<path d="M1416 2559 c-14 -11 -26 -27 -26 -36 0 -13 8 -14 42 -9 46 8 58 18
51 47 -7 25 -34 24 -67 -2z"/>
<path d="M1787 2507 c-17 -27 -47 -95 -47 -108 0 -17 19 -9 69 31 l52 41 -21
29 c-26 36 -33 37 -53 7z"/>
<path d="M3040 2464 c-73 -26 -136 -63 -178 -105 -39 -39 -81 -96 -61 -83 8 5
40 26 71 46 31 21 113 64 182 97 69 33 126 62 126 65 0 12 -86 0 -140 -20z"/>
<path d="M1014 2432 c-14 -8 -24 -15 -22 -17 5 -5 91 16 101 25 15 13 -52 6
-79 -8z"/>
<path d="M2609 2380 l-24 -19 25 0 c14 -1 36 8 50 19 l25 20 -26 0 c-15 0 -37
-9 -50 -20z"/>
<path d="M1185 2378 c-5 -16 -8 -39 -6 -57 1 -9 9 -5 26 10 29 28 32 44 9 53
-22 8 -24 8 -29 -6z"/>
<path d="M3035 2294 c-24 -32 -37 -74 -23 -74 17 0 80 69 76 82 -8 23 -33 19
-53 -8z"/>
<path d="M2113 2213 c-20 -7 -15 -33 5 -33 19 0 42 18 42 32 0 9 -27 9 -47 1z"/>
<path d="M1490 2153 c-30 -7 -68 -15 -84 -18 -86 -17 -384 -130 -373 -142 10
-9 259 58 383 104 168 61 200 86 74 56z"/>
<path d="M1805 1890 c-3 -6 1 -7 9 -4 18 7 21 14 7 14 -6 0 -13 -4 -16 -10z"/>
<path d="M2565 4441 c-33 -20 -71 -59 -64 -65 2 -2 21 3 41 11 25 10 40 24 47
44 5 16 9 29 8 29 -1 0 -15 -8 -32 -19z"/>
<path d="M1637 4029 c21 -20 107 -56 124 -52 72 19 14 65 -77 62 -30 -1 -51
-6 -47 -10z"/>
<path d="M1795 3864 c-27 -13 -45 -24 -39 -24 6 0 28 -13 49 -30 41 -33 53
-37 52 -17 -1 38 5 47 44 58 40 12 40 13 17 25 -33 19 -66 16 -123 -12z"/>
<path d="M2170 3820 c-16 -10 18 -30 51 -30 17 0 19 3 10 14 -15 18 -45 26
-61 16z"/>
</g>
</svg>
