<?xml version="1.0" encoding="UTF-8"?>
<svg width="1200pt" height="1200pt" version="1.1" viewBox="0 0 1200 1200" xmlns="http://www.w3.org/2000/svg">
 <g>
  <path d="m475.2 350.4c24 7.1992 40.801-4.8008 60-15.602 9.6016-6 20.398-7.1992 31.199-12 9.6016-6 20.398-8.3984 25.199-21.602 3.6016-12 18-14.398 30-15.602 30-3.6016 58.801-9.6016 85.199-26.398 25.199-15.602 52.801-14.398 80.398-1.1992 22.801 9.6016 43.199 26.398 70.801 22.801 8.3984-1.1992 16.801-1.1992 24-3.6016 15.602-4.8008 30-6 46.801 0s36 3.6016 55.199 3.6016c50.398-1.1992 94.801 13.199 130.8 49.199 15.602 16.801 30 34.801 43.199 52.801 10.801 13.199 10.801 32.398 10.801 49.199 0 21.602-12 42-8.3984 64.801 0 3.6016-4.8008 7.1992-7.1992 10.801-21.602 36-55.199 56.398-88.801 78-51.602 32.398-105.6 63.602-154.8 99.602-55.199 39.602-112.8 73.199-171.6 104.4-57.602 31.199-116.4 57.602-176.4 84-33.602 14.398-67.199 26.398-99.602 42-24 12-49.199 15.602-74.398 20.398-30 6-60 9.6016-90 14.398-18 3.6016-36 2.3984-52.801 1.1992-31.199-2.3984-62.398-2.3984-92.398-12-39.602-10.801-73.199-31.199-92.398-70.801-10.801-22.801-13.199-48-18-73.199-12-60 13.199-108 45.602-154.8 19.199-27.602 40.801-52.801 70.801-68.398 1.1992 0 1.1992-1.1992 2.3984-1.1992 38.398-13.199 63.602-44.398 93.602-69.602 7.1992-6 14.398-10.801 20.398-16.801 12-10.801 22.801-22.801 30-39.602 18-42 49.199-73.199 96-85.199 24 0.007812 48-11.992 74.398-9.5938zm3.6016 66c-3.6016 7.1992-15.602 6-14.398 16.801-7.1992-2.3984-12 6-19.199 2.3984l1.1992 1.1992c2.3984-7.1992 10.801-9.6016 13.199-18 8.3984 1.1992 14.398-2.3984 19.199-10.801-7.1992 2.3984-14.398 3.6016-18 10.801-15.602 0-26.398 12-38.398 20.398-4.8008 2.3984-20.398 8.3984-3.6016 16.801 3.6016 1.1992 0 4.8008-1.1992 7.1992-2.3984 3.6016-7.1992 6-8.3984 9.6016-3.6016 6 0 10.801 6 14.398 6 3.6016 8.3984-1.1992 9.6016-4.8008 3.6016-7.1992 9.6016-12 13.199-18 7.1992-13.199 21.602-19.199 27.602-32.398 5.9961-2.3945 15.594-3.5977 13.195-15.598 6 3.6016 12 3.6016 16.801-3.6016-7.2031-2.3984-10.801 4.8047-16.801 3.6016zm-42 492c-7.1992-1.1992-13.199 1.1992-21.602 8.3984 10.801-1.1953 18-1.1953 21.602-8.3984 4.8008 1.1992 8.3984 1.1992 12-4.8008h-6c-2.4023 0.003906-4.8008 0.003906-6 4.8008zm296.4-544.8c-4.8008 6-13.199 8.3984-21.602 15.602 12-1.1992 20.398-3.6016 25.199-8.3984 8.4023-6.0039-2.3984-3.6055-3.5977-7.2031-2.3984-7.1992 7.1992-4.8008 7.1992-9.6016-7.1992-3.6016-14.398 0-20.398 2.3984-3.6016 1.1992-8.3984 1.1992-7.1992 6 1.1992 6 6 4.8008 10.801 4.8008 2.3984-1.1992 6-2.3984 9.5977-3.5977zm-194.4 496.8c7.1992 4.8008 14.398 1.1992 20.398-1.1992 33.602-9.6016 63.602-27.602 94.801-42 12-4.8008 24-10.801 36-16.801 7.1992-3.6016 7.1992-3.6016 4.8008-18-25.199 18-50.398 37.199-79.199 43.199-28.801 6-50.398 24-75.602 33.602 0 1.1992-1.1992 2.4023-1.1992 1.1992 1.1992-2.3984 3.6016-4.8008 3.6016-7.1992-1.1992-4.8008-6-3.6016-8.3984-1.1992-7.1992 7.1992-16.801 10.801-26.398 14.398-1.1992 1.1992-3.6016 0-6 0 1.1992-6 10.801-7.1992 7.1992-18-20.398 2.3984-37.199 14.398-55.199 22.801-4.8008 2.3984-9.6016 7.1992-7.1992 14.398 3.6016 7.1992 9.6016 4.8008 15.602 3.6016 26.398-3.6016 48-16.801 73.199-24 1.1914 0 2.3945-2.3984 3.5938-4.8008zm453.6-246c14.398-3.6016 24-15.602 38.398-21.602 24-9.6016 43.199-27.602 63.602-43.199 4.8008-3.6016 9.6016-7.1992 4.8008-14.398 6-2.3984 8.3984-8.3984 10.801-13.199 6-9.6016-8.3984-7.1992-8.3984-12 4.8008-6 15.602-3.6016 16.801-13.199-6-6-13.199-4.8008-22.801 3.6016 4.8008-13.199 18-21.602 13.199-27.602-7.1992-9.6016 0-12 2.3984-18 6-14.398 1.1992-21.602-15.602-25.199-6-1.1992-10.801-1.1992-18-6 13.199-6 26.398 4.8008 42-4.8008-18-7.1992-31.199-9.6016-46.801-8.3984-13.199 2.3984-26.398 1.1992-36-9.6016 22.801 0 45.602 1.1992 68.398 3.6016-24-15.602-50.398-19.199-79.199-14.398 7.1992 1.1992 12 3.6016 10.801 10.801-19.199-6-38.398 1.1992-60 1.1992 37.199-24 37.199-21.602 69.602-26.398 26.398-3.6016 46.801 12 70.801 21.602-3.6016-16.801-7.1992-22.801-14.398-22.801-24 0-45.602-8.3984-69.602-4.8008-24 3.6016-48 7.1992-70.801 15.602 6-12 18-13.199 30-16.801 16.801-4.8008 37.199-1.1992 55.199-12-25.199-2.3984-48-4.8008-70.801-2.3984 32.398-9.6016 64.801-3.6016 98.398-4.8008-6-9.6016-14.398-8.3984-21.602-9.6016h-46.801c-10.801 1.1992-21.602 1.1992-32.398 4.8008-14.398 4.8008-16.801 9.6016-13.199 24 1.1992 4.8008 2.3984 9.6016 2.3984 15.602 4.8008 13.199 9.6016 26.398 13.199 39.602 2.3984 13.199 13.199 22.801 14.398 40.801-19.199-20.398-40.801-34.801-54-58.801-8.3984-14.398-22.801-26.398-37.199-37.199-8.3984-6-15.602-9.6016-26.398-7.1992-7.1992 2.3984-15.602 1.1992-24 1.1992-6 0-10.801 2.3984-16.801 6-10.801 4.8008-3.6016 9.6016-1.1992 14.398-4.8008 6-15.602-2.3984-15.602 6 0 7.1992-3.6016 8.3984-8.3984 9.6016-14.398 1.1992-27.602 6-39.602 13.199-6 3.6016-12 2.3984-13.199-4.8008-1.1992-7.1992-3.6016-8.3984-9.6016-6-3.6016 1.1992-7.1992 1.1992-10.801 2.3984-19.199 3.6016-19.199 2.3984-16.801-16.801-4.8008-4.8008-10.801 2.3984-16.801-1.1992-3.6016-2.3984-6-3.6016-7.1992-8.3984-1.1992-6 2.3984-6 7.1992-6 4.8008 0 7.1992-2.3984 6-7.1992 0-3.6016-2.3984-6-6-6-4.8008-1.1992-8.3984-1.1992-13.199-1.1992-1.1992 0-2.3984-1.1992-2.3984-1.1992-4.8008-8.3984 6-12 2.3984-19.199-8.3984-2.3984-15.602 8.3984-24 1.1992 13.199-12 31.199-12 45.602-18 37.199-16.801 37.199-14.398 43.199-25.199-8.3984 0-16.801 0-24 3.6016-8.3984 4.8008-16.801 6-25.199 7.1992 3.6016-3.6016 9.6016-4.8008 10.801-10.801-19.199-2.3984-31.199 8.3984-46.801 18 9.6016 3.6016 15.602 0 22.801-3.6016 4.8008-2.3984 8.3984-4.8008 14.398-3.6016-15.602 19.199-39.602 13.199-58.801 18-2.3984 0-3.6016-2.3984-3.6016-4.8008-1.1992-7.1992-1.1992-14.398 8.3984-16.801 7.1992-2.3984 16.801-3.6016 21.602-14.398-18 3.6016-33.602 6-50.398 8.3984-4.8008 1.1992-8.3984 2.3984-10.801 7.1992-2.3984 6 2.3984 9.6016 6 13.199 30 21.602 52.801 51.602 75.602 80.398 26.398 33.602 39.602 72 42 114 0 3.6016 1.1992 9.6016-6 10.801-3.6016-9.6016-12-14.398-20.398-21.602-32.398-28.801-69.602-52.801-102-81.602-8.3984-7.1992-19.199-14.398-28.801-20.398-8.3984-6-21.602-10.801-27.602-4.8008-7.1992 7.1992-15.602 7.1992-22.801 9.6016-6 2.3984-14.398 4.8008-18 12 4.8008 4.8008 12-2.3984 16.801 1.1992-1.1992 6-6 6-9.6016 7.1992-26.398 10.801-51.602 26.398-72 46.801-6 4.8008-15.602 10.801-1.1992 16.801 2.3984 1.1992 1.1992 3.6016-1.1992 4.8008-9.6016 3.6016-4.8008 7.1992 0 10.801 18 13.199 32.398 30 50.398 43.199 16.801 10.801 27.602 28.801 36 46.801 12 24 1.1992 39.602-25.199 40.801h-2.3984c-21.602 0-42-4.8008-61.199-14.398-16.801-9.6016-33.602-19.199-54-15.602-4.8008 1.1992-8.3984 0-9.6016-6-1.1992-3.6016-4.8008-4.8008-8.3984-6-43.199-12-85.199-24-129.6-22.801-39.602 1.1992-73.199 14.398-98.398 46.801-3.6016 4.8008-8.3984 10.801-14.398 13.199-9.6016 6-15.602 15.602-20.398 25.199-6 10.801-13.199 21.602-18 32.398-13.199 26.398-24 54-21.602 84 0 2.3984 0 6 3.6016 6 3.6016 0 4.8008-2.3984 4.8008-6 0-10.801 1.1992-20.398 13.199-24v-6c7.1992-4.8008 9.6016-10.801 8.3984-20.398-7.1992 6-7.1992 13.199-7.1992 20.398-2.3984 0-6 3.6016-7.1992 0-1.1992-7.1992 0-14.398 2.3984-21.602 15.602-32.398 36-62.398 57.602-91.199 14.398-19.199 34.801-32.398 56.398-43.199 9.6016-4.8008 21.602-10.801 31.199-8.3984 12 3.6016 21.602 0 32.398-2.3984 10.801-1.1992 21.602-3.6016 32.398 3.6016 2.3984 2.3984 7.1992 3.6016 7.1992 7.1992 0 6-4.8008 8.3984-8.3984 8.3984-18-2.3984-30 10.801-44.398 18 6-14.398 24-18 33.602-32.398-38.398-1.1992-62.398 21.602-87.602 43.199 1.1992 6 6 4.8008 7.1992 6 8.3984 8.3984 14.398 7.1992 21.602-1.1992 6-6 13.199-9.6016 21.602-10.801 13.199 2.3984 22.801-2.3984 31.199-10.801 8.3984-9.6016 14.398-1.1992 21.602 1.1992 1.1992 0 1.1992 3.6016 1.1992 6-1.1992 3.6016-2.3984 3.6016-6 2.3984-6-3.6016-12-3.6016-12 6 0 6-3.6016 4.8008-7.1992 3.6016-4.8008-1.1992-8.3984 0-12 2.3984-14.398 10.801-26.398 21.602-38.398 38.398 14.398-1.1992 22.801-12 36-14.398-1.1992 7.1992 0 14.398-9.6016 15.602-8.3984 1.1992-16.801 3.6016-21.602 12 2.3984 6 9.6016 7.1992 12 12 2.3984 3.6016-1.1992 3.6016-4.8008 1.1992-8.3984-6-16.801-4.8008-25.199 1.1992-12 10.801-22.801 22.801-31.199 42 21.602-16.801 38.398-30 56.398-44.398-8.3984 14.398 6 13.199 14.398 19.199-33.602 4.8008-40.801 7.1992-61.199 31.199-13.199 15.602-33.602 27.602-31.199 52.801l-1.1992 1.1992c-13.199 2.3984-7.1992 15.602-14.398 21.602-4.8008 3.6016-2.3984 7.1992 1.1992 10.801 2.3984 2.3984 7.1992 2.3984 8.3984 8.3984-13.199-1.1992-14.398 6-12 15.602-7.1992-2.3984-4.8008-12-13.199-14.398-2.3984 6-13.199 9.6016-4.8008 16.801 6 6 14.398 8.3984 19.199-3.6016 19.199 1.1992 32.398-10.801 46.801-20.398-4.8008-6-14.398 1.1992-15.602-8.3984 3.6016-4.8008 12-6 13.199-6 10.801 7.1992 18-2.3984 26.398-6 14.398-4.8008 27.602-12 46.801-14.398-31.199 18-58.801 34.801-85.199 50.398 2.3984 6 6 6 9.6016 7.1992-2.3984 4.8008-9.6016 2.3984-12 7.1992 12 10.801 26.398 10.801 42 8.3984 18-3.6016 34.801-10.801 50.398-21.602 4.8008-3.6016 9.6016-9.6016 16.801-8.3984-2.3984 10.801-19.199 12-20.398 25.199 6 2.3984 8.3984-2.3984 10.801-2.3984 30 0 56.398-15.602 85.199-21.602 26.398-4.8008 46.801-24 69.602-37.199 4.8008-2.3984 10.801-12 16.801-6 6 7.1992-8.3984 7.1992-8.3984 14.398 4.8008 1.1992 10.801 1.1992 14.398-2.3984 10.801-8.3984 19.199-3.6016 26.398 8.3984-13.199-3.6016-24 6-36 0-4.8008-2.3984-8.3984 3.6016-12 8.3984-12 18-31.199 26.398-50.398 34.801-9.6016 3.6016-21.602 4.8008-32.398 12-3.6016 2.3984-6 2.3984-9.6016 2.3984-21.602 0-26.398 2.3984-43.199 21.602 6 1.1992 12 0 16.801-2.3984 10.801-4.8008 22.801-7.1992 36-7.1992 19.199 1.1992 38.398-2.3984 49.199-22.801 1.1992-2.3984 3.6016-4.8008 7.1992-3.6016 10.801 7.1992 18-3.6016 25.199-7.1992 6-3.6016 12-8.3984 19.199-10.801 20.398-8.3984 43.199-10.801 63.602-22.801 2.3984 4.8008-3.6016 13.199 3.6016 12 16.801-3.6016 37.199 1.1992 51.602-14.398 2.3984-2.3984 6-7.1992 8.3984-3.6016 7.1992 7.1992 12 1.1992 18-1.1992 24-10.801 46.801-25.199 66-43.199 9.6016-9.6016 21.602-19.199 38.398-19.199-4.8008 15.602-19.199 21.602-30 33.602 19.199-4.8008 30-20.398 45.602-26.398 21.602-7.1992 42-15.602 57.602-33.602 10.801-12 25.199-19.199 37.199-31.199 15.602-14.398 31.199-28.801 48-42 8.3984-6 16.801-16.801 28.801-4.8008 3.6016 3.6016 8.3984 0 12-2.3984 22.801-14.398 44.398-28.801 67.199-43.199 4.8008-3.6016 8.3984-8.3984 15.602-8.3984 10.801 1.1992 16.801-4.8008 24-9.6016 10.801-8.3984 20.398-16.801 31.199-25.199 1.1992 13.199-7.1992 21.602-15.602 30-10.797 16.789-20.395 20.391-21.598 29.988-16.801-6-30 1.1992-42 13.199-2.3984 2.3984-4.8008 3.6016-7.1992 4.8008-10.801 8.3984-24 21.602-31.199 34.801 30-20.398 57.602-32.398 80.398-52.801zm-97.199 44.402c-22.801 6-40.801 22.801-60 34.801-1.1992 1.1992-3.6016 3.6016-3.6016 4.8008 1.1992 10.801-8.3984 13.199-14.398 16.801-8.3984 6-18 9.6016-27.602 15.602-24 13.199-46.801 28.801-66 49.199 3.6016 3.6016 6 1.1992 8.3984 0 28.801-18 58.801-34.801 87.602-52.801 15.602-9.6016 30-19.199 44.398-27.602 6-3.6016 14.398-8.3984 14.398-13.199-3.5938-15.602 12.004-18.004 16.805-27.602 7.1992 0 9.6016-6 13.199-10.801-6 2.3984-13.199 2.3984-13.199 10.801zm-654 258c-1.1992-3.6016-4.8008-6-8.3984-6-15.602-1.1992-31.199-2.3984-46.801-3.6016-3.6016 0-9.6016-2.3984-10.801 3.6016s2.3984 10.801 7.1992 12c12 3.6016 24 8.3984 34.801-1.1992 6-6 9.6016-4.8008 15.602-1.1992 3.6016 12 14.398 3.6016 20.398 8.3984 15.602 13.199 31.199 7.1992 48 1.1992 3.6016-1.1992 10.801-4.8008 12-2.3984 13.199 9.6016 24 0 36-2.3984 21.602-4.8008 39.602-18 61.199-22.801 7.1992-1.1992 13.199-8.3984 16.801-18-12 1.1992-24 2.3984-30 8.3984-13.199 12-30 12-43.199 21.602-2.3984 1.1992-4.8008 1.1992-7.1992 0-7.1992-4.8008-7.1992-3.6016-9.6016 2.3984-2.3984 4.8008-8.3984 6-8.3984 3.6016 0-13.199-12-10.801-16.801-9.6016-24 4.8008-48-2.4023-70.801 6zm55.199-375.6c-12-4.8008-25.199-4.8008-37.199-3.6016-15.602 1.1992-34.801-1.1992-43.199 19.199 4.8008 3.6016 9.6016 1.1992 14.398 1.1992h15.602c61.199 4.8008 120 25.199 178.8 42 24 7.1992 46.801 9.6016 74.398 15.602-10.801-22.801-25.199-38.398-44.398-48-22.801-10.801-43.199-25.199-66-36-25.199-13.199-50.398-27.602-79.199-32.398-4.8008-1.1992-8.3984-1.1992-9.6016-7.1992-2.3984-8.3984-7.1992-4.8008-12-1.1992-6 4.8008-12 8.3984-14.398 16.801-1.1992 3.6016-2.3984 7.1992-6 8.3984-7.1992 2.3984-18 1.1992-14.398 12 2.3984 8.3984 12-1.1992 18 1.1992 7.1953 3.6016 20.398-2.3984 25.195 12zm26.402-86.398c22.801 0 42 6 60 15.602 1.1992 0 1.1992 1.1992 2.3984 1.1992 10.801 3.6016 16.801-2.3984 13.199-13.199-2.3984-8.3984 0-13.199 6-16.801 19.199-12 36-26.398 55.199-36 20.398-9.6016 40.801-25.199 66-15.602 4.8008 1.1992 10.801 0 12-7.1992 0-4.8008-6-6-9.6016-8.3984-3.6016-1.1992-7.1992-3.6016-10.801 0-3.6016 3.6016-7.1992 3.6016-12 1.1992-6-3.6016-6-2.3984-13.199 4.8008-1.1992 2.3984-3.6016 2.3984-6 1.1992-9.6016-2.3984-16.801 2.3984-25.199 7.1992-21.602 12-43.199 26.398-64.801 37.199-9.6016 6-16.801 12-14.398 25.199-7.1992-7.1992-15.602-2.3984-25.199-7.1992 21.602-12 30-31.199 49.199-44.398-16.801 0-26.398 8.3984-34.801 14.398-9.6016 6-20.398 12-26.398 22.801-15.598-8.4023-15.598 9.5977-21.598 18zm199.2-93.602c12 6 20.398 10.801 30 14.398 6 2.3984 13.199 1.1992 18 6 38.398 34.801 81.602 63.602 121.2 96 3.6016 3.6016 7.1992 9.6016 15.602 7.1992-1.1992-9.6016-15.602-12-14.398-21.602 1.1992-9.6016 1.1992-14.398-10.801-14.398-6 0 1.1992-8.3984-1.1992-10.801-7.1992-4.8008-6 7.1992-10.801 6-3.6016 0-4.8008-3.6016-6-6-4.8008-8.3984-12-14.398-18-21.602-9.6016-10.801-20.398-20.398-31.199-31.199-16.801-15.602-36-31.199-62.398-22.801-1.1992-9.6016 10.801-10.801 12-20.398-16.805-1.1953-27.605 9.6055-42.004 19.203zm307.2-6c-20.398-2.3984-40.801 1.1992-58.801 10.801-16.801 8.3984-39.602 10.801-46.801 33.602 7.1992 2.3984 14.398 3.6016 16.801-2.3984 3.6016-12 14.398-10.801 22.801-14.398 10.801-3.6016 21.602-6 31.199-9.6016 24-8.3984 49.199-14.398 74.398-21.602-19.199-25.199-20.398-26.398-46.801-12 0.003906 6 8.4023 6 7.2031 15.598zm127.2-21.598c13.199-7.1992 15.602-18 14.398-32.398-13.199 3.6016-26.398 3.6016-40.801-3.6016 8.3984 19.199 14.398 33.602 24 48 15.602-8.3984 32.398-9.6016 48-10.801 15.602-2.3984 32.398 2.3984 49.199-6-18-7.1992-33.602-4.8008-48-2.3984-15.594 1.1992-31.195 4.7969-46.797 7.1992zm-742.8 319.2c-19.199 12-43.199 19.199-49.199 45.602-1.1992 2.3984-2.3984 3.6016-4.8008 4.8008-15.602 4.8008-22.801 19.199-33.602 30-2.3984 2.3984-7.1992 6-1.1992 10.801 42-19.203 62.398-57.605 88.801-91.203zm-99.602 27.598c-6 10.801-19.199 20.398-13.199 33.602 4.8008 10.801 1.1992 16.801-3.6016 22.801-4.8008 7.1992-10.801 14.398-12 22.801-1.1992 4.7969-1.1992 8.3984 2.4023 9.5977 3.6016 1.1992 6-1.1992 7.1992-3.6016 4.8008-12 10.801-24 18-34.801 2.3984-3.6016 4.8008-9.6016 1.1992-12-9.6016-6-3.6016-10.801 1.1992-15.602 6-7.1953 7.1992-14.395-1.1992-22.797zm32.398 14.402c19.199-13.199 32.398-28.801 48-42 1.1992-1.1992 2.3984-3.6016 2.3984-6 0-3.6016-3.6016-4.8008-6-4.8008-3.6016 0-7.1992 1.1992-10.801 2.3984-17.996 12-32.395 25.203-33.598 50.402zm99.602 192c14.398 3.6016 28.801 0 43.199-3.6016 28.801-8.3984 30-8.3984 34.801-20.398-27.602 6-54 10.801-78 24zm-69.602-266.4c-21.602 10.801-38.398 25.199-51.602 45.602-3.6016 6-4.8008 12 1.1992 18 21.605-19.199 32.402-43.199 50.402-63.602zm867.6-306c-16.801-10.801-36-12-55.199-7.1992-7.1992 2.3984-12 3.6016-12 14.398 21.598-1.1992 44.398-7.1992 67.199-7.1992zm-231.6-9.5977c-13.199-9.6016-22.801-18-33.602-22.801-3.6016-1.1992-8.3984-4.8008-10.801 1.1992-1.1992 4.8008 1.1992 7.1992 4.8008 9.6016 10.801 8.3984 10.801 8.3984 6 19.199 10.805 4.8008 19.203-2.3984 33.602-7.1992zm42 13.199c13.199 10.801 24 20.398 34.801 31.199 7.1992 7.1992 10.801 2.3984 16.801-4.8008-13.199 2.3984-16.801-9.6016-21.602-15.602-12-13.195-9.5977-14.398-30-10.797zm-752.4 468c-9.6016 15.602-15.602 31.199-13.199 51.602 7.1992-1.1992 10.801-4.8008 13.199-9.6016 6-14.398-1.1992-28.801 0-42zm766.8-490.8c-18 2.3984-36 0-56.398-9.6016 20.398 18.004 38.398 20.402 56.398 9.6016zm-124.8 45.602c7.1992 2.3984 13.199 8.3984 19.199 6 7.1992-2.3984 20.398-2.3984 18-12-1.1992-9.6016-13.199-6-20.398-3.6016-4.8008 2.4023-12 1.1992-16.801 9.6016zm-670.8 458.4c-18 16.801-18 16.801-6 38.402 8.4023-10.801 4.8008-22.801 6-38.402zm148.8 97.199c16.801 8.3984 33.602 12 50.398 0-16.797-1.1992-33.598-4.7969-50.398 0zm608.4-577.2c-13.199-6-24-6-33.602-2.3984-3.6016 1.1992-6 3.6016-4.8008 8.3984 1.1992 3.6016 3.6016 6 8.3984 4.8008 9.6055 0 19.207-3.6016 30.004-10.801zm-115.2 16.801c14.398 1.1992 31.199-6 42-15.602-16.801-1.1992-28.801 6-42 15.602zm-555.6 548.4c-4.8008-20.398-6-21.602-25.199-9.6016 8.3984 6.0039 14.398 13.203 25.199 9.6016zm244.8-4.7969c13.199-3.6016 28.801-3.6016 42-15.602-18-2.3984-30 8.3984-42 15.602zm62.402-512.4c-12-3.6016-19.199 3.6016-27.602 3.6016-3.6016 0-6 2.3984-3.6016 6 1.1992 2.3984 3.6016 4.8008 7.1992 3.6016 7.2031-2.4023 15.602-6.0039 24.004-13.203zm-342 402c-10.801 8.3984-15.602 19.199-14.398 34.801 8.3984-10.801 10.797-22.801 14.398-34.801zm361.2 78c-9.6016 0-19.199 1.1992-27.602 7.1992 9.6016 3.6016 19.203 1.2031 27.602-7.1992zm-388.8 1.1992c-2.3984 1.1992-4.8008 2.3984-6 3.6016-3.6016 3.6016-6 8.3984-2.3984 13.199 1.1992 1.1992 2.3984 2.3984 3.6016 2.3984 7.1992-1.1992 6-7.1992 6-12-0.003906-2.3984-0.003906-4.7969-1.2031-7.1992zm295.2-4.7969c-9.6016 4.8008-22.801 1.1992-30 16.801 13.203-4.8008 24-7.2031 30-16.801zm-28.797-445.2c-14.398 8.3984-22.801 14.398-26.398 27.602 7.1953-8.3984 15.598-15.602 26.398-27.602zm728.4-45.598c-2.3984-6 1.1992-16.801-10.801-16.801-1.1992 0-3.6016 1.1992-3.6016 2.3984 1.2031 7.2031 8.4023 10.801 14.402 14.402zm39.602 152.4c-3.6016 8.3984-13.199 13.199-13.199 26.398 8.3984-9.5977 14.398-15.598 13.199-26.398zm-26.402-162c-2.3984 9.6016-1.1992 16.801 6 22.801 4.8008-9.6016 2.4023-15.602-6-22.801zm-884.4 594c6 1.1992 13.199 8.3984 21.602 0-7.2031-3.5977-14.402-2.3984-21.602 0zm903.6-476.4c-2.3984-4.8008 8.3984-9.6016-1.1992-18 0 7.1992-2.3984 13.199 1.1992 18zm-397.2-193.2c9.6016 0 15.602 1.1992 20.398-3.6016-7.1992-1.1992-11.996-1.1992-20.398 3.6016zm-596.4 442.8c3.6016 0 4.8008-2.3984 6-4.8008 1.1992-2.3984 0-4.8008-2.3984-3.6016-3.6016 0-3.6016 3.6016-4.8008 6-1.2031 1.2031 0 1.2031 1.1992 2.4023zm560.4-285.6c-2.3984 7.1992 1.1992 10.801 7.1992 14.398 1.2031-6 1.2031-10.801-7.1992-14.398zm379.2-109.2c-3.6016-3.6016-7.1992-6-12-6-1.1992 0-2.3984 1.1992-1.1992 2.3984 3.6016 4.8008 7.1992 6 13.199 3.6016zm-926.4 589.2c0-2.3984-2.3984-6-4.8008-6-1.1992 0-3.6016 1.1992-6 1.1992 2.3984 2.3984 3.6016 4.8008 6 6 1.1992 1.1992 3.6016 1.1992 4.8008-1.1992zm195.6-39.602c3.6016 0 6-1.1992 6-4.8008 0-1.1992-2.3984-2.3984-3.6016-2.3984-2.3984 0-6 0-6 3.6016 1.1992 2.3984 2.3984 2.3984 3.6016 3.5977z"/>
  <path d="m512.4 445.2c6-12 20.398-13.199 28.801-22.801-6-4.8008-13.199 0-19.199-3.6016 16.801-12 38.398-10.801 50.398 3.6016 6 7.1992 10.801 9.6016 19.199 9.6016 3.6016 0 4.8008 2.3984 4.8008 6 0 2.3984-2.3984 2.3984-4.8008 3.6016-21.602 1.1992-37.199 14.398-54 24-19.199 12-38.398 24-57.602 36-3.6016 2.3984-8.3984 6-9.6016 3.6016-3.6016-8.3984-14.398-7.1992-18-14.398-2.3984-3.6016 1.1992-7.1992 3.6016-9.6016 10.801-8.3984 20.398-19.199 33.602-24v-1.1992c-1.1992 14.398-19.199 14.398-21.602 27.602 1.1992 1.1992 3.6016 2.3984 3.6016 2.3984 31.199-16.801 55.199-44.398 88.801-58.801-19.199-3.6016-31.199 12-48 16.801zm34.801 4.8008c-6 1.1992-10.801 2.3984-12 9.6016 4.8008-1.2031 9.6016-2.4023 12-9.6016z"/>
  <path d="m272.4 846c-1.1992-8.3984 9.6016-9.6016 12-16.801-3.6016-3.6016-7.1992-2.3984-12-1.1992 1.1992-1.1992 1.1992-2.3984 2.3984-3.6016 22.801-3.6016 39.602-18 56.398-32.398 14.398-12 30-20.398 46.801-28.801 6-2.3984 6-2.3984 22.801 0 6 1.1992 13.199-8.3984 21.602 3.6016-16.801-1.1992-28.801 9.6016-44.398 9.6016-2.3984 0-7.1992 0-7.1992 3.6016 4.8008 15.602-8.3984 12-15.602 14.398-9.6016 4.8008-20.398 9.6016-28.801 15.602-15.602 10.801-31.199 21.602-48 31.199 0 4.7969-3.5977 3.5977-6 4.7969z"/>
  <path d="m1099.2 534c-15.602 6-26.398 21.602-45.602 27.602 2.3984-9.6016 9.6016-13.199 13.199-20.398-8.3984-2.3984-13.199 8.3984-20.398 7.1992 3.6016-12 13.199-16.801 24-18 7.1992-1.1992 14.398 0 21.602-3.6016 4.8008-2.4023 7.1992 2.3984 7.1992 7.1992z"/>
  <path d="m477.6 812.4c10.801-22.801 45.602-42 69.602-38.398-26.402 13.199-50.402 21.602-69.602 38.398z"/>
  <path d="m273.6 828c-31.199 14.398-64.801 25.199-98.398 31.199 1.1992-1.1992 2.3984-2.3984 3.6016-3.6016 29.996-11.996 61.195-23.996 94.797-27.598z"/>
  <path d="m589.2 457.2c-27.602 8.3984-48 27.602-73.199 42 12-19.199 50.398-42 73.199-42z"/>
  <path d="m297.6 790.8c3.6016-10.801 6-19.199 13.199-25.199 2.3984 3.6016 6 7.1992 8.3984 10.801-7.1992 4.7969-12 11.996-21.598 14.398z"/>
  <path d="m312 720c-4.8008 1.1992-9.6016 2.3984-14.398-2.3984 4.8008-2.3984-1.1992-8.3984 3.6016-8.3984 7.1953-1.2031 9.5977 4.7969 10.797 10.797z"/>
  <path d="m312 736.8c-10.801 1.1992-21.602 2.3984-31.199 6 9.5977-12 21.598-9.6016 31.199-6z"/>
  <path d="m364.8 754.8c-7.1992 8.3984-16.801 6-30 12 9.5977-13.199 20.398-10.801 30-12z"/>
  <path d="m237.6 770.4v-2.3984c3.6016-6 7.1992-10.801 14.398-10.801 1.1992 0 2.3984 3.6016 2.3984 6 0 4.8008 0 4.8008-16.797 7.1992z"/>
  <path d="m514.8 820.8c0-9.6016 4.8008-15.602 12-19.199 0 0 2.3984 1.1992 2.3984 2.3984 0 10.801-9.5977 12-14.398 16.801z"/>
  <path d="m201.6 805.2v-6c2.3984-2.3984-2.3984-9.6016 4.8008-8.3984 1.1992 0 3.6016 1.1992 3.6016 1.1992 3.6016 6-3.6016 6-4.8008 9.6016 1.1953 1.1992-1.2031 1.1992-3.6016 3.5977z"/>
  <path d="m490.8 459.6c3.6016-9.6016 12-12 21.602-14.398 0 0 1.1992 1.1992 1.1992 1.1992-6 8.3984-13.203 13.199-22.801 13.199z"/>
  <path d="m1046.4 547.2c-4.8008 9.6016-12 16.801-22.801 18 4.8008-8.3984 13.203-14.398 22.801-18z"/>
  <path d="m192 781.2c-8.3984 2.3984-15.602 3.6016-22.801 6 7.1992-7.1992 7.1992-7.1992 22.801-6z"/>
  <path d="m240 692.4c6-9.6016 10.801-7.1992 16.801-10.801-4.8008 9.6016-10.801 6.0039-16.801 10.801z"/>
  <path d="m460.8 788.4c-7.1992 4.8008-9.6016 9.6016-18 6 4.8008-3.5977 8.3984-7.1992 18-6z"/>
  <path d="m370.8 819.6c-2.3984 4.8008-4.8008 7.1992-9.6016 7.1992-1.1992 0-2.3984-1.1992-1.1992-3.6016 2.3984-3.5977 6-4.8008 10.801-3.5977z"/>
  <path d="m296.4 541.2c12 0 21.602-15.602 36-3.6016-7.1992 2.4023-16.797 2.4023-14.398 14.402-9.6016-2.3984-13.199-13.199-21.602-10.801z"/>
  <path d="m309.6 513.6c-13.199 10.801-18 0-31.199-4.8008 14.398-2.4023 21.598-2.4023 31.199 4.8008z"/>
  <path d="m385.2 550.8c-8.3984 0-12-1.1992-15.602-4.8008 6.0039-3.6016 10.801-1.1992 15.602 4.8008z"/>
  <path d="m445.2 435.6c0 9.6016-7.1992 12-18 15.602 6-9.6016 12-13.203 18-15.602 1.1992 0 0 0 0 0z"/>
 </g>
</svg>
